<svg width="100" height="336" viewBox="0 0 100 336" fill="none" xmlns="http://www.w3.org/2000/svg">
  <circle cx="50" cy="286" r="50" fill="#424243" />
  <circle cx="50" cy="50" r="50" fill="#424243" />
  <rect y="50" width="100" height="236" fill="#424243" />
  <circle r="4" transform="matrix(-1 0 0 1 46 65)" fill="white" />
  <circle r="4" transform="matrix(-1 0 0 1 57 65)" fill="white" />
  <circle r="4" transform="matrix(-1 0 0 1 57 54)" fill="white" />
  <circle r="4" transform="matrix(-1 0 0 1 46 54)" fill="white" />
  <circle r="4" transform="matrix(-1 0 0 1 46 282)" fill="white" />
  <circle r="4" transform="matrix(-1 0 0 1 57 282)" fill="white" />
  <circle r="4" transform="matrix(-1 0 0 1 57 271)" fill="white" />
  <circle r="4" transform="matrix(-1 0 0 1 46 271)" fill="white" />
</svg>